<svg width="77" height="10" viewBox="0 0 77 10" fill="none" xmlns="http://www.w3.org/2000/svg">
<path d="M7.22521 7.14154L7.29527 10H5.40363L5.48771 7.30968L5.41765 2.44749H2.16684L2.09678 7.14154L2.16684 10H0.275213L0.359286 7.30968L0.275213 0.97622H7.32329L7.22521 7.14154ZM16.7654 10H14.8317L14.6075 8.82299L14.3693 7.98226L12.6038 7.94022L11.0484 7.98226L10.8102 8.7249L10.572 10H8.69439L11.749 0.97622H14.005L16.7654 10ZM13.9629 6.51099L12.898 2.75575H12.7719L11.5388 6.51099L12.7439 6.53902L13.9629 6.51099ZM21.6481 0.962208C22.5916 0.962208 23.3156 1.20041 23.82 1.67682C24.3338 2.15324 24.5907 2.83516 24.5907 3.72259C24.5907 4.40451 24.4412 5.00236 24.1423 5.51613C23.8433 6.02057 23.4136 6.41291 22.8532 6.69315C22.302 6.97339 21.6528 7.11351 20.9055 7.11351H20.0087V7.14154L20.0928 10H18.1871L18.2852 7.30968L18.1871 0.97622L21.6481 0.962208ZM21.3258 5.72632C22.1853 5.48344 22.615 4.87158 22.615 3.89073C22.615 3.3863 22.4842 3.01264 22.2226 2.76977C21.9704 2.51755 21.5781 2.3821 21.0456 2.36342L20.0928 2.41947L20.0367 5.67027L21.3258 5.72632ZM32.4605 10H30.5269L30.3027 8.82299L30.0645 7.98226L28.2989 7.94022L26.7436 7.98226L26.5054 8.7249L26.2672 10H24.3896L27.4442 0.97622H29.7001L32.4605 10ZM29.6581 6.51099L28.5932 2.75575H28.4671L27.234 6.51099L28.4391 6.53902L29.6581 6.51099ZM43.3545 10H41.673L41.5329 7.26764L41.2106 3.79265H41.0705L39.0528 9.04718H37.5815L35.7459 3.79265H35.6198L35.2695 7.08549L35.0733 10H33.476L34.3867 0.97622H36.5726L36.9369 2.30737L38.3662 6.58105H38.4923L39.9916 2.30737L40.3979 0.97622H42.5418L43.3545 10ZM51.0515 8.43065L51.1636 8.58478L51.0375 10H45.3766L45.4747 7.30968L45.3766 0.97622H51.0935L51.2056 1.13035L51.0655 2.54557L48.9076 2.47551L47.2822 2.48953L47.2402 4.6614L48.7955 4.68942L50.2668 4.64739L50.3789 4.78751L50.2528 6.20273L48.6554 6.16069L47.2122 6.1747L47.1982 7.14154L47.2402 8.50071L48.8236 8.51472L51.0515 8.43065ZM58.6029 1.13035L58.4908 2.54557L56.7953 2.4615H56.2349L56.1648 7.14154L56.2489 10H54.3432L54.4413 7.30968L54.3713 2.4615H53.8108L52.0873 2.54557L51.9612 2.39144L52.0873 0.97622H58.4908L58.6029 1.13035ZM63.356 0.962208C64.2994 0.962208 65.0234 1.20041 65.5278 1.67682C66.0416 2.15324 66.2985 2.83516 66.2985 3.72259C66.2985 4.40451 66.149 5.00236 65.8501 5.51613C65.5512 6.02057 65.1215 6.41291 64.561 6.69315C64.0098 6.97339 63.3606 7.11351 62.6133 7.11351H61.7165V7.14154L61.8006 10H59.895L59.9931 7.30968L59.895 0.97622L63.356 0.962208ZM63.0337 5.72632C63.8931 5.48344 64.3228 4.87158 64.3228 3.89073C64.3228 3.3863 64.192 3.01264 63.9304 2.76977C63.6782 2.51755 63.2859 2.3821 62.7534 2.36342L61.8006 2.41947L61.7446 5.67027L63.0337 5.72632ZM71.1517 4.4372C71.9924 4.4372 72.637 4.65206 73.0854 5.08176C73.5338 5.50212 73.7579 6.10931 73.7579 6.90333C73.7579 7.87483 73.4357 8.63616 72.7911 9.1873C72.1466 9.7291 71.2498 10 70.1008 10H67.6066L67.7047 7.32369L67.6066 0.97622H69.5263L69.4702 4.4372H71.1517ZM76.6304 7.14154L76.7145 10H74.8088L74.9069 7.30968L74.8088 0.97622H76.7425L76.6304 7.14154ZM70.6052 8.68286C70.9882 8.60813 71.2825 8.43999 71.488 8.17843C71.6935 7.90753 71.7963 7.56657 71.7963 7.15555C71.7963 6.7165 71.6842 6.38021 71.46 6.14668C71.2451 5.9038 70.9322 5.78236 70.5212 5.78236L69.4562 5.81039L69.4282 7.14154L69.4702 8.62682L70.6052 8.68286Z" fill="white"/>
</svg>
