<svg xmlns="http://www.w3.org/2000/svg">
 <symbol viewBox="0 0 56 40" id="logo">
  <path d="M12.575 18.552c-1.008 0-1.896-.176-2.664-.528-.768-.352-1.36-.84-1.776-1.464-.416-.64-.624-1.376-.624-2.208 0-.704.144-1.344.432-1.92a3.703 3.703 0 0 1 1.2-1.368 3 3 0 0 1 1.68-.504c.56 0 1.032.144 1.416.432.384.272.624.656.72 1.152-.832 0-1.496.224-1.992.672-.496.432-.744 1.024-.744 1.776 0 .688.208 1.24.624 1.656.416.416.968.624 1.656.624.848 0 1.544-.28 2.088-.84.56-.576.84-1.296.84-2.16 0-.752-.208-1.464-.624-2.136-.416-.672-1.04-1.488-1.872-2.448-.864-.992-1.52-1.84-1.968-2.544a4.488 4.488 0 0 1-.648-2.352c0-.832.232-1.576.696-2.232.464-.672 1.104-1.2 1.92-1.584C13.751.192 14.671 0 15.695 0c1.296 0 2.328.304 3.096.912.784.608 1.176 1.424 1.176 2.448 0 .672-.168 1.216-.504 1.632a1.615 1.615 0 0 1-1.32.624c-.608 0-1.096-.248-1.464-.744.304-.224.544-.52.72-.888.176-.368.264-.752.264-1.152 0-.512-.152-.92-.456-1.224-.304-.304-.72-.456-1.248-.456-.64 0-1.168.232-1.584.696-.4.448-.6 1.024-.6 1.728 0 .64.184 1.24.552 1.8.368.544.944 1.248 1.728 2.112.64.688 1.152 1.28 1.536 1.776.4.496.736 1.072 1.008 1.728.288.64.432 1.336.432 2.088a4.78 4.78 0 0 1-.864 2.784c-.56.832-1.336 1.488-2.328 1.968-.976.48-2.064.72-3.264.72Zm10.184-.288c-.768 0-1.392-.24-1.872-.72-.464-.48-.696-1.2-.696-2.16 0-.4.064-.92.192-1.56l1.632-7.704h3.456l-1.728 8.16c-.048.24-.072.464-.072.672 0 .656.24.984.72.984.448 0 .832-.184 1.152-.552.32-.384.576-.904.768-1.56l1.632-7.704h3.456l-1.728 8.16a2.97 2.97 0 0 0-.096.768c0 .32.072.552.216.696.16.128.416.192.768.192.448 0 .832-.192 1.152-.576.336-.384.6-.896.792-1.536h1.008c-.592 1.728-1.328 2.904-2.208 3.528-.864.608-1.736.912-2.616.912-.688 0-1.24-.192-1.656-.576-.4-.384-.64-.952-.72-1.704-.544.88-1.12 1.48-1.728 1.8-.592.32-1.2.48-1.824.48ZM34.132 6.12h3.456l-.312 1.488c.544-.48 1.032-.848 1.464-1.104a2.855 2.855 0 0 1 1.44-.384c.512 0 .912.176 1.2.528.304.352.456.776.456 1.272 0 .464-.152.872-.456 1.224-.304.352-.728.528-1.272.528-.352 0-.592-.08-.72-.24-.112-.176-.2-.424-.264-.744a2.203 2.203 0 0 0-.144-.456c-.048-.096-.136-.144-.264-.144-.336 0-.624.072-.864.216-.224.128-.52.36-.888.696l-1.92 9.12h-3.456l2.544-12Zm5.231 18a2.874 2.874 0 0 1-1.968-.744 2.297 2.297 0 0 1-.864-1.848c0-.688.176-1.256.528-1.704a3.84 3.84 0 0 1 1.368-1.08c.56-.256 1.304-.528 2.232-.816l2.904-13.704c.32-1.536.88-2.6 1.68-3.192.816-.592 1.712-.888 2.688-.888.752 0 1.408.248 1.968.744.576.48.864 1.096.864 1.848 0 .368-.024.696-.072.984h-1.128c.032-.352.048-.568.048-.648 0-.256-.088-.456-.264-.6a.99.99 0 0 0-.648-.216c-.336 0-.664.152-.984.456-.32.288-.552.792-.696 1.512l-.408 1.896h1.752l-.168.96H46.42l-2.76 12.96c-.32 1.552-.872 2.616-1.656 3.192a4.272 4.272 0 0 1-2.64.888Zm-.552-2.136c.64 0 1.096-.624 1.368-1.872l.312-1.392c-.848.288-1.496.616-1.944.984-.464.384-.696.88-.696 1.488 0 .192.096.368.288.528a.963.963 0 0 0 .672.264ZM3.36 39.264c-1.088 0-1.92-.264-2.496-.792C.288 37.928 0 37.168 0 36.192c0-.48.056-.936.168-1.368L2.736 22.8l3.552-.48-1.152 5.4c.448-.272.816-.448 1.104-.528.288-.096.576-.144.864-.144 1.888 0 2.832 1.368 2.832 4.104 0 1.104-.216 2.288-.648 3.552a7.44 7.44 0 0 1-2.112 3.216c-.976.896-2.248 1.344-3.816 1.344Zm1.344-2.328c.496 0 .96-.304 1.392-.912.432-.624.776-1.392 1.032-2.304.256-.928.384-1.816.384-2.664 0-.64-.112-1.184-.336-1.632-.224-.448-.536-.672-.936-.672-.24 0-.512.04-.816.12-.288.064-.488.168-.6.312l-1.32 6.096a2.275 2.275 0 0 0-.072.552c0 .736.424 1.104 1.272 1.104Zm9.632 2.28c-1.184 0-2.12-.304-2.808-.912-.688-.608-1.032-1.568-1.032-2.88 0-1.088.224-2.296.672-3.624a8.473 8.473 0 0 1 2.16-3.432c.992-.976 2.24-1.464 3.744-1.464 2.048 0 3.072 1.28 3.072 3.84v.024a.966.966 0 0 0 .264.024c.528 0 1.136-.136 1.824-.408a9.553 9.553 0 0 0 1.872-1.032l.216.648c-.464.496-1.072.92-1.824 1.272a9.507 9.507 0 0 1-2.424.72c-.128 1.456-.456 2.728-.984 3.816-.528 1.088-1.208 1.928-2.04 2.52-.832.592-1.736.888-2.712.888Zm.96-2.16c.384 0 .768-.216 1.152-.648.384-.448.72-1.048 1.008-1.8.288-.768.496-1.616.624-2.544-.432-.096-.648-.432-.648-1.008 0-.656.248-1.088.744-1.296-.032-.528-.112-.888-.24-1.08-.128-.208-.352-.312-.672-.312-.528 0-1.04.384-1.536 1.152-.496.768-.896 1.688-1.2 2.76-.304 1.072-.456 2.016-.456 2.832 0 .768.088 1.288.264 1.56.176.256.496.384.96.384Zm8.963 2.208c-.912 0-1.672-.312-2.28-.936-.608-.624-.912-1.6-.912-2.928 0-1.184.232-2.424.696-3.72.48-1.312 1.184-2.416 2.112-3.312.944-.912 2.064-1.368 3.36-1.368.656 0 1.144.112 1.464.336.32.224.48.52.48.888v.168l.264-1.272h3.456l-1.728 8.16a2.97 2.97 0 0 0-.096.768c0 .688.328 1.032.984 1.032.448 0 .832-.208 1.152-.624.336-.416.6-.96.792-1.632h1.008c-.592 1.728-1.328 2.904-2.208 3.528-.864.608-1.736.912-2.616.912-.672 0-1.216-.184-1.632-.552-.4-.384-.64-.936-.72-1.656a6.8 6.8 0 0 1-1.56 1.608c-.56.4-1.232.6-2.016.6Zm1.56-2.328c.4 0 .792-.184 1.176-.552.4-.384.672-.904.816-1.56l1.152-5.424c0-.208-.08-.408-.24-.6-.16-.208-.408-.312-.744-.312-.64 0-1.216.376-1.728 1.128-.512.736-.912 1.632-1.2 2.688-.288 1.04-.432 1.96-.432 2.76 0 .8.112 1.312.336 1.536.24.224.528.336.864.336Zm9.825-9.816H39.1l-.312 1.488c.544-.48 1.032-.848 1.464-1.104a2.855 2.855 0 0 1 1.44-.384c.512 0 .912.176 1.2.528.304.352.456.776.456 1.272 0 .464-.152.872-.456 1.224-.304.352-.728.528-1.272.528-.352 0-.592-.08-.72-.24-.112-.176-.2-.424-.264-.744a2.203 2.203 0 0 0-.144-.456c-.048-.096-.136-.144-.264-.144-.336 0-.624.072-.864.216-.224.128-.52.36-.888.696l-1.92 9.12H33.1l2.544-12Zm10.271 12.144c-.912 0-1.672-.312-2.28-.936-.608-.624-.912-1.6-.912-2.928 0-1.184.232-2.424.696-3.72.48-1.312 1.184-2.416 2.112-3.312.944-.912 2.064-1.368 3.36-1.368.656 0 1.144.112 1.464.336.32.224.48.52.48.888v.096l1.176-5.52 3.552-.48-2.76 12.96c-.064.24-.096.472-.096.696 0 .64.328.96.984.96.288 0 .544-.048.768-.144-.064.8-.352 1.416-.864 1.848-.496.416-1.088.624-1.776.624-.64 0-1.184-.16-1.632-.48-.432-.336-.72-.84-.864-1.512-.96 1.328-2.096 1.992-3.408 1.992Zm1.56-2.328c.352 0 .704-.152 1.056-.456.368-.304.64-.728.816-1.272l.096-.384 1.176-5.496c-.144-.56-.472-.84-.984-.84-.64 0-1.216.376-1.728 1.128-.512.736-.912 1.632-1.2 2.688-.288 1.04-.432 1.96-.432 2.76 0 .8.112 1.312.336 1.536.24.224.528.336.864.336Z"/>
 </symbol>
<symbol viewBox="0 0 13 15" id="phone">
  <path d="M12.669 13.155c-.235.5-.704.751-1.173 1.002-.587.376-1.056.501-1.642.501-.821 0-1.643-.376-2.346-.626-.587-.251-1.056-.502-1.643-.752-1.642-1.128-3.519-3.133-4.457-4.761a11.785 11.785 0 0 1-.821-1.755C.352 5.887 0 5.136 0 4.134c0-.627.117-1.254.47-1.88.234-.501.468-1.002.938-1.253.352 0 .938-.125 1.29-.125h.235c.234.125.352.5.469.751.234.627.586 1.128.821 1.755.235.25.47.5.47.751 0 .627-1.643 1.504-1.643 2.005 0 .25.235.626.352.877.938 1.754 2.111 3.007 3.754 4.01.234.125.586.375.82.375.47 0 1.291-1.754 1.878-1.754.234 0 .469.25.704.501.469.376 1.055.627 1.524 1.003.235.125.587.25.704.501v.25c.118.251 0 .878-.117 1.254Z"/>
</symbol>
<symbol viewBox="0 0 35 35" id="surf">
  <path d="M34.548.452a1.015 1.015 0 0 0-.81-.294c-.126.012-3.117.296-7.22 1.673C13.166 5.943 4.33 18.89.221 28.256c-.259.618.264 1.446 1.046 1.378l4.538-.442-.441 4.538c-.049.653.585 1.34 1.378 1.046 16.305-7.429 26.25-18.8 28.1-33.514.027-.3-.08-.597-.294-.81ZM21.41 22.788a60.09 60.09 0 0 1-5.219 4.236V9.721a32.623 32.623 0 0 1 5.22-3.476v16.543ZM11.494 30.1a50.861 50.861 0 0 1-3.939 2.097l.393-4.036c.058-.525-.428-1.19-1.11-1.11l-4.035.392c1.363-2.891 5.034-9.624 11.356-15.89v16.88a57.998 57.998 0 0 1-2.665 1.667Zm19.73-22.208c-1.194 3.537-3.512 8.643-7.781 12.953V5.232c2.78-1.343 7.03-2.547 9.19-2.866a37.061 37.061 0 0 1-1.41 5.525Z"/>
</symbol>
<symbol viewBox="0 0 35 35" id="materials">
  <path d="M33.83 12.418h-7.274l.003-.019a8.25 8.25 0 0 0 2.014-2.575 1.016 1.016 0 0 0-.91-1.471h-1.568a8.992 8.992 0 0 0-1.484-2.656 8.246 8.246 0 0 0-.397-3.241 1.016 1.016 0 0 0-1.683-.397L21.419 3.17a8.983 8.983 0 0 0-2.92-.827C17.732 1.44 16.848.724 15.922.261a1.017 1.017 0 0 0-1.471.91v1.636a8.992 8.992 0 0 0-2.655 1.484 8.246 8.246 0 0 0-3.242.397 1.016 1.016 0 0 0-.397 1.683L9.27 7.482a8.983 8.983 0 0 0-.828 2.923 8.283 8.283 0 0 0-1.705 2.013H1.17c-.561 0-1.016.455-1.016 1.017V17.5c0 .561.455 1.016 1.016 1.016h1.084V33.83c0 .561.455 1.016 1.017 1.016h4.065c.562 0 1.017-.455 1.017-1.016v-3.445l9.147-3.66 9.147 3.66v3.445c0 .561.455 1.016 1.017 1.016h4.065c.562 0 1.017-.455 1.017-1.016V18.516h1.084c.561 0 1.016-.455 1.016-1.016v-4.066c0-.56-.455-1.016-1.016-1.016Zm-23.79-.695c.232-.18.375-.45.392-.743.068-1.135.392-2.2.962-3.168.236-.4.171-.908-.156-1.235l-.274-.274c.34-.01.684.006 1.031.05.291.037.584-.053.803-.248a7.01 7.01 0 0 1 2.924-1.563c.448-.116.762-.52.762-.984v-.402c.241.238.474.5.695.786.18.232.45.374.743.392 1.134.068 2.2.391 3.168.962.4.236.907.171 1.235-.157l.274-.273c.01.34-.006.684-.05 1.031-.037.29.053.583.248.803a7.011 7.011 0 0 1 1.563 2.924c.116.448.52.761.984.761h.383c-.233.249-.49.48-.767.696-.232.18-.375.45-.392.743-.012.199-.033.397-.06.594h-4.134A3.053 3.053 0 0 0 17.5 8.352a3.053 3.053 0 0 0-2.874 4.066H9.273c.234-.248.49-.48.767-.695Zm8.476-.321a1.018 1.018 0 0 1-2.032 0 1.018 1.018 0 0 1 2.032 0ZM6.32 32.813H4.287V18.516H6.32v14.297Zm2.033-4.618v-5.128l6.41 2.564-6.41 2.564Zm18.294 0-6.41-2.564 6.41-2.564v5.128Zm0-7.318-9.147 3.66-9.147-3.66v-2.36h18.294v2.36Zm4.066 11.936H28.68V18.516h2.033v14.297Zm2.1-16.33H2.187v-2.032h30.626v2.033Z"/>
</symbol>
<symbol viewBox="0 0 35 35" id="delivery">
  <path d="M26.355 15.979a4.378 4.378 0 0 0-4.373 4.373 4.378 4.378 0 0 0 4.373 4.372 4.378 4.378 0 0 0 4.373-4.372 4.378 4.378 0 0 0-4.373-4.373Zm0 6.559a2.189 2.189 0 0 1-2.186-2.186c0-1.206.98-2.187 2.186-2.187s2.187.98 2.187 2.187c0 1.205-.98 2.186-2.187 2.186ZM11.414 15.979a4.378 4.378 0 0 0-4.373 4.373 4.378 4.378 0 0 0 4.373 4.372 4.378 4.378 0 0 0 4.373-4.372 4.378 4.378 0 0 0-4.373-4.373Zm0 6.559a2.189 2.189 0 0 1-2.186-2.186c0-1.206.98-2.187 2.186-2.187s2.187.98 2.187 2.187c0 1.205-.98 2.186-2.187 2.186ZM29.3 3.462a1.094 1.094 0 0 0-.977-.602h-5.758v2.186h5.084l2.977 5.921 1.954-.982-3.28-6.523Z"/>
  <path d="M23.076 19.295h-8.273v2.186h8.273v-2.186ZM8.134 19.295h-3.79a1.093 1.093 0 1 0 0 2.186h3.79a1.093 1.093 0 1 0 0-2.186ZM34.617 12.611l-2.15-2.77a1.092 1.092 0 0 0-.864-.422h-7.944V1.766c0-.604-.49-1.093-1.094-1.093H4.345a1.093 1.093 0 1 0 0 2.186h17.127v7.653c0 .604.49 1.093 1.093 1.093h8.502l1.593 2.051v5.639h-3.025a1.093 1.093 0 1 0 0 2.186h4.118c.604 0 1.093-.49 1.093-1.093v-7.106c0-.243-.08-.479-.23-.67ZM8.062 13.756h-5.03a1.093 1.093 0 1 0 0 2.186h5.03a1.093 1.093 0 1 0 0-2.186ZM10.576 9.455H1.247a1.093 1.093 0 1 0 0 2.187h9.33a1.093 1.093 0 1 0 0-2.187Z"/>
  <path d="M12.362 5.155h-9.33a1.093 1.093 0 1 0 0 2.187h9.33a1.093 1.093 0 1 0 0-2.187Z"/>
</symbol>
<symbol width="68" height="68" viewBox="0 0 44 68" id="person">
  <path d="M41.836 60.031h-5.977v-4.25h2.663a1.992 1.992 0 1 0 0-3.984H35.86v-3.984h5.32a1.992 1.992 0 0 0 0-3.985h-5.32v-3.984h2.663a1.992 1.992 0 0 0 0-3.985H35.86v-3.984h5.32a1.992 1.992 0 0 0 0-3.984h-5.32v-3.985h2.663a1.992 1.992 0 1 0 0-3.984H35.86v-3.985h5.32a1.992 1.992 0 0 0 0-3.984h-5.32V7.97h2.663a1.992 1.992 0 0 0 0-3.985H35.86V1.992a1.992 1.992 0 0 0-3.984 0v58.04h-7.193L25.778 42.5h.127c1.1 0 1.992-.892 1.992-1.992V27.223c0-4.422-2.899-8.179-6.896-9.474a5.978 5.978 0 0 0 2.918-5.132 5.983 5.983 0 0 0-5.976-5.976 5.983 5.983 0 0 0-5.977 5.976 5.979 5.979 0 0 0 2.916 5.13c-3.999 1.294-6.9 5.052-6.9 9.476v13.285c0 1.1.892 1.992 1.992 1.992h.12l1.097 17.531H1.992c-1.1 0-1.992.892-1.992 1.992v3.985a1.992 1.992 0 0 0 3.984 0v-1.992h35.86v1.992a1.992 1.992 0 1 0 3.984 0v-3.985c0-1.1-.892-1.992-1.992-1.992ZM17.943 10.625c1.098 0 1.992.894 1.992 1.992a1.994 1.994 0 0 1-1.992 1.992 1.994 1.994 0 0 1-1.992-1.992c0-1.098.893-1.992 1.992-1.992Zm-5.977 16.598a5.98 5.98 0 0 1 5.974-5.973 5.98 5.98 0 0 1 5.973 5.973v11.293H11.966V27.223Zm2.12 15.277h7.7L20.69 60.031h-5.507L14.087 42.5Z"/>
</symbol>
<symbol width="68" height="68" viewBox="0 0 64 64" id="tree">
  <path d="M33.875 30.181V19.817h4.15c9.893 0 17.942-8.049 17.942-17.942C55.967.84 55.127 0 54.092 0h-6.027C41.037 0 34.94 4.063 32 9.962 29.058 4.062 22.962 0 15.933 0H9.908C8.873 0 8.033.84 8.033 1.875c0 9.893 8.049 17.942 17.942 17.942h4.15V30.18C13.325 31.152 0 45.081 0 62.125 0 63.16.84 64 1.875 64h60.25C63.16 64 64 63.16 64 62.125c0-17.044-13.325-30.973-30.125-31.944ZM48.065 3.75h4.028c-.92 6.942-6.879 12.317-14.068 12.317h-4.027c.92-6.943 6.877-12.317 14.067-12.317Zm-22.09 12.317c-7.19 0-13.148-5.375-14.068-12.317h4.026c7.19 0 13.148 5.375 14.069 12.317h-4.027ZM3.81 60.25c.929-14.33 11.435-22.005 18.282-24.584v4.712c0 .572-.223 1.11-.628 1.515l-6.025 6.025a5.898 5.898 0 0 0 0 8.33l4.001 4.002H3.81Zm20.933 0-6.652-6.653a2.14 2.14 0 0 1 0-3.028l6.025-6.025a5.853 5.853 0 0 0 1.726-4.166v-5.83A28.366 28.366 0 0 1 32 33.876c4.914 0 9.677 1.259 13.906 3.659L35.522 47.918a5.888 5.888 0 0 0 0 8.33l4.001 4.002h-14.78Zm20.084 0-6.653-6.653a2.14 2.14 0 0 1 0-3.028L49.1 39.643A28.253 28.253 0 0 1 60.188 60.25H44.827Z"/>
</symbol>
<symbol width="68" height="68" viewBox="0 0 68 68" id="surfs">
  <path d="M67.58 64.784c-.105-.135-2.63-3.336-7.98-6.493-2.61-1.541-6.209-3.24-10.814-4.482a69.333 69.333 0 0 0 2.564-13.706c.541-6.407.157-12.667-1.142-18.607-1.629-7.443-4.704-14.392-9.14-20.655a1.992 1.992 0 0 0-3.251 0 57.452 57.452 0 0 0-3.787 6.122A57.406 57.406 0 0 0 30.243.84a1.992 1.992 0 0 0-3.251 0c-4.437 6.262-7.512 13.212-9.14 20.655-1.3 5.94-1.684 12.2-1.143 18.607a69.254 69.254 0 0 0 2.646 13.981c-4.245 1.204-7.67 2.76-10.234 4.18C3.467 61.392.623 64.55.504 64.682A1.992 1.992 0 0 0 1.992 68h64.016a1.992 1.992 0 0 0 1.572-3.216ZM20.963 26.958l13.363-9.08a52.198 52.198 0 0 1 1.046 3.84L20.53 31.804c.073-1.56.212-3.18.433-4.846Zm1.01-5.504a52.327 52.327 0 0 1 6.646-15.88 52.556 52.556 0 0 1 4.322 8.428l-10.967 7.452Zm-1.477 15.19L36.18 25.987c.645 4.373.776 8.924.388 13.64a65.613 65.613 0 0 1-2.244 12.389 57.109 57.109 0 0 0-11.085 1.126 65.327 65.327 0 0 1-2.558-13.375 61.201 61.201 0 0 1-.184-3.123Zm14.177 19.353c10.801 0 18.316 3.054 22.718 5.617a33.152 33.152 0 0 1 3.58 2.402H7.435c4.744-3.346 13.779-8.019 27.24-8.019Zm4.771-50.423c6.314 9.995 8.986 21.436 7.947 34.053a65.47 65.47 0 0 1-2.508 13.298 54.31 54.31 0 0 0-6.45-.792 69.732 69.732 0 0 0 2.092-12.03c.541-6.407.157-12.667-1.142-18.607a56.366 56.366 0 0 0-3.169-9.964 52.205 52.205 0 0 1 3.23-5.958Z"/>
</symbol>
<symbol viewBox="0 0 20 12" id="vk">
  <path d="M19.891 10.605c0-.055-.054-.11-.054-.11-.328-.599-1.036-1.416-2.017-2.288-.436-.436-.708-.708-.817-.872-.218-.272-.273-.545-.164-.817.11-.218.382-.654.927-1.363.272-.381.49-.654.654-.872 1.198-1.58 1.743-2.615 1.58-3.051l-.055-.11C19.892.96 19.782.906 19.62.85c-.164-.054-.382-.054-.654 0h-3.216c-.109 0-.109.055-.109.055h-.054l-.055.054c-.054 0-.054.055-.109.11-.054.054-.054.108-.109.163a23.35 23.35 0 0 1-1.09 2.343c-.272.436-.49.817-.708 1.144-.218.327-.382.545-.545.709l-.381.381c-.11.11-.218.11-.273.11-.054 0-.109-.055-.163-.055-.11-.055-.164-.164-.218-.273-.055-.109-.11-.218-.11-.381 0-.164-.054-.327-.054-.436V1.667c0-.217 0-.38-.054-.49 0-.109-.055-.218-.11-.327-.054-.109-.108-.218-.217-.272l-.327-.164C10.68.305 10.245.305 9.646.305 8.338.305 7.52.36 7.139.578c-.164.054-.273.163-.382.327-.108.163-.163.218-.054.272.436.055.708.218.872.436l.054.11c.055.108.11.272.164.49.054.218.054.49.109.762.054.49.054.927 0 1.308-.055.382-.055.654-.11.818-.054.218-.054.381-.163.49l-.109.218c0 .055-.054.055-.054.055-.109.054-.164.054-.273.054-.109 0-.218-.054-.327-.163-.163-.11-.272-.218-.435-.382a2.641 2.641 0 0 1-.49-.708c-.164-.327-.382-.654-.6-1.09l-.164-.327c-.109-.218-.272-.49-.436-.872-.163-.381-.327-.708-.49-1.09-.055-.109-.164-.218-.273-.327h-.054C3.869.905 3.814.905 3.76.85c-.054 0-.163-.054-.218-.054H.708c-.327 0-.545.109-.654.218v.054C0 1.123 0 1.178 0 1.232c0 .054 0 .163.054.272.436.981.872 1.907 1.363 2.834.49.926.926 1.635 1.253 2.18.382.545.709 1.09 1.09 1.58.382.49.6.818.763.927.11.163.218.218.273.326l.272.273c.164.163.436.381.709.6.327.217.654.435 1.09.708.381.218.871.436 1.362.545.545.163 1.035.218 1.526.163h1.199a.832.832 0 0 0 .545-.218l.054-.054c.055-.055.055-.11.055-.218 0-.11.054-.164.054-.273 0-.272 0-.545.055-.817.054-.218.109-.436.163-.545.055-.109.164-.218.218-.327.11-.109.164-.109.164-.163.054 0 .054-.055.109-.055.163-.054.381 0 .599.164.218.163.436.381.654.599.218.218.436.49.708.817.273.273.545.545.709.654l.218.11c.163.108.327.163.545.217.218.055.436.11.6.055l2.67-.055c.272 0 .49-.054.599-.109.164-.109.218-.163.273-.272.054-.11.054-.218 0-.382 0 0 0-.109-.055-.163Z"/>
</symbol>
<symbol viewBox="0 0 20 20" id="f">
  <path d="M20 18.91c0 .6-.49 1.09-1.09 1.09h-5.123v-7.738h2.616l.382-2.998h-2.998V7.357c0-.872.218-1.471 1.472-1.471h1.58V3.16c-.272-.055-1.199-.11-2.343-.11-2.289 0-3.87 1.418-3.87 3.979v2.234H8.012v2.998h2.616V20H1.09C.49 20 0 19.51 0 18.91V1.09C0 .49.49 0 1.09 0h17.82c.6 0 1.09.49 1.09 1.09v17.82Z"/>
</symbol>
<symbol viewBox="0 0 20 20" id="in">
  <path d="M17.602 0H2.398C1.09 0 0 1.035 0 2.343v15.314C0 18.965 1.09 20 2.398 20h15.204C18.91 20 20 18.965 20 17.657V2.343C20 1.035 18.91 0 17.602 0Zm-3.215 3.106c0-.327.272-.6.6-.6h1.907c.327 0 .6.273.6.6V4.96c0 .327-.273.6-.6.6H15.04a.605.605 0 0 1-.6-.6l-.054-1.853Zm-4.36 3.052c2.126 0 3.87 1.69 3.87 3.815s-1.744 3.814-3.87 3.814c-2.125 0-3.869-1.689-3.869-3.814 0-2.071 1.744-3.815 3.87-3.815Zm8.066 11.335c0 .327-.273.6-.6.6H2.507a.605.605 0 0 1-.6-.6V8.12H4.36c-.327.49-.436 1.362-.436 1.907 0 3.325 2.725 6.05 6.103 6.05 3.379 0 6.104-2.726 6.104-6.05 0-.545-.055-1.417-.49-1.907h2.506l-.054 9.373Z"/>
</symbol>
<symbol viewBox="0 0 20 18" id="tw">
  <path d="M19.455 1.016c-.817.49-1.69.818-2.616 1.036A4.032 4.032 0 0 0 13.842.744c-2.289 0-4.087 1.907-4.087 4.196 0 .327.054.654.109.98-3.433-.217-6.43-1.907-8.447-4.468a4.555 4.555 0 0 0-.545 2.125c0 1.472.708 2.725 1.853 3.488-.654 0-1.308-.218-1.853-.545v.11c0 2.016 1.417 3.76 3.27 4.14a3.514 3.514 0 0 1-1.09.164c-.273 0-.545 0-.763-.054.545 1.69 2.016 2.888 3.815 2.943A8.03 8.03 0 0 1 .98 15.62c-.327 0-.654 0-.981-.055a11.33 11.33 0 0 0 6.267 1.908c7.575 0 11.662-6.43 11.662-11.99V4.94c.818-.6 1.526-1.308 2.071-2.18-.708.327-1.526.545-2.343.654.817-.6 1.471-1.417 1.798-2.398Z"/>
</symbol>

</svg>